<svg width="24" height="38" viewBox="0 0 24 38" fill="none" xmlns="http://www.w3.org/2000/svg">
<path d="M11.6666 0.333313L16.5604 6.54334C20.9476 12.1105 23.3333 18.9923 23.3333 26.0804H11.6666V0.333313Z" fill="#C4C4C4"/>
<path d="M11.6666 0.333313L16.5604 6.54334C20.9476 12.1105 23.3333 18.9923 23.3333 26.0804H11.6666V0.333313Z" fill="url(#paint0_linear)"/>
<path fill-rule="evenodd" clip-rule="evenodd" d="M0 26.0804C0 26.0805 0 26.0805 0 26.0805C0 32.4793 5.22334 37.6667 11.6667 37.6667C18.11 37.6667 23.3333 32.4793 23.3333 26.0805C23.3333 26.0805 23.3333 26.0805 23.3333 26.0804H0Z" fill="#C4C4C4"/>
<path fill-rule="evenodd" clip-rule="evenodd" d="M0 26.0804C0 26.0805 0 26.0805 0 26.0805C0 32.4793 5.22334 37.6667 11.6667 37.6667C18.11 37.6667 23.3333 32.4793 23.3333 26.0805C23.3333 26.0805 23.3333 26.0805 23.3333 26.0804H0Z" fill="url(#paint1_linear)"/>
<defs>
<linearGradient id="paint0_linear" x1="17.5024" y1="26.0804" x2="17.5024" y2="-3.52875" gradientUnits="userSpaceOnUse">
<stop stop-color="#393185"/>
<stop offset="1" stop-color="#00A0E3"/>
</linearGradient>
<linearGradient id="paint1_linear" x1="11.6715" y1="37.6666" x2="11.6715" y2="26.0804" gradientUnits="userSpaceOnUse">
<stop stop-color="#393185"/>
<stop offset="1" stop-color="#00A0E3"/>
</linearGradient>
</defs>
</svg>
